<?xml version="1.0" standalone="no"?>
<!DOCTYPE svg PUBLIC "-//W3C//DTD SVG 20010904//EN"
 "http://www.w3.org/TR/2001/REC-SVG-20010904/DTD/svg10.dtd">
<svg version="1.0" xmlns="http://www.w3.org/2000/svg"
 width="511.000000pt" height="511.000000pt" viewBox="0 0 511.000000 511.000000"
 preserveAspectRatio="xMidYMid meet">
<metadata>
Created by potrace 1.11, written by Peter Selinger 2001-2013
</metadata>
<g transform="translate(0.000000,511.000000) scale(0.100000,-0.100000)"
fill="#000000" stroke="none">
<path d="M2729 5028 c-10 -33 -12 -79 -13 -268 l-2 -225 -77 -2 c-42 -1 -79 3
-83 8 -4 6 -11 5 -21 -2 -8 -7 -22 -14 -31 -14 -10 -1 -43 -5 -74 -9 l-58 -7
-1 28 c-3 75 -57 390 -71 416 -18 34 -36 49 -43 37 -12 -20 12 -202 45 -330 9
-35 16 -67 27 -127 5 -31 5 -32 -41 -38 -25 -4 -46 -10 -46 -14 0 -3 -18 -7
-39 -8 -22 -1 -78 -16 -125 -32 -47 -17 -86 -27 -86 -23 0 4 -5 0 -10 -8 -8
-12 -10 -12 -10 -1 0 10 -5 9 -17 -5 -10 -10 -25 -20 -33 -22 -40 -7 -119 -45
-114 -54 4 -6 -2 -8 -15 -3 -12 4 -21 2 -21 -4 0 -6 -7 -11 -15 -11 -9 0 -18
-6 -21 -13 -2 -7 -14 -14 -26 -14 -12 -1 -24 -6 -27 -10 -3 -5 -14 -9 -24 -8
-13 0 -36 32 -77 110 -32 60 -65 114 -72 120 -7 5 -13 15 -13 20 -1 17 -28 65
-37 65 -4 0 -8 7 -8 15 0 9 -7 18 -15 21 -8 4 -13 9 -10 14 5 9 -43 36 -51 28
-3 -3 3 -23 12 -44 9 -22 18 -41 19 -44 4 -15 53 -102 84 -150 54 -84 54 -84
83 -138 l28 -51 -42 -30 c-23 -17 -46 -31 -51 -31 -4 0 -6 -4 -3 -9 3 -5 -8
-8 -24 -7 -21 2 -32 -3 -35 -15 -6 -19 -72 -81 -104 -98 -18 -10 -27 -2 -88
79 -37 49 -71 90 -75 90 -4 0 -8 5 -8 10 0 23 -154 180 -176 180 -16 0 -19
-16 -4 -25 6 -4 8 -11 5 -16 -4 -5 -1 -9 4 -9 6 0 11 -7 11 -15 0 -8 4 -15 8
-15 4 0 15 -13 25 -29 10 -16 35 -49 57 -73 22 -24 40 -46 40 -50 0 -5 7 -8
16 -8 8 0 12 -4 9 -10 -3 -5 1 -10 10 -10 9 0 14 -4 11 -8 -8 -13 69 -84 80
-75 5 5 6 4 2 -1 -10 -12 11 -48 23 -40 8 4 8 0 0 -13 -6 -11 -7 -23 -4 -27 3
-3 -1 -6 -10 -6 -9 0 -19 -5 -23 -12 -4 -7 -3 -8 4 -4 7 4 12 5 12 1 0 -3 -11
-10 -25 -15 -14 -5 -25 -17 -25 -25 0 -9 -4 -13 -10 -10 -5 3 -10 1 -10 -5 0
-6 -4 -9 -9 -5 -6 3 -8 -4 -6 -15 3 -15 -1 -20 -12 -18 -9 2 -22 -7 -28 -19
-7 -13 -23 -32 -36 -43 -13 -10 -32 -27 -41 -36 -9 -9 -21 -13 -26 -10 -8 5
-18 -25 -24 -71 -1 -7 -7 -13 -15 -13 -13 0 -17 -12 -14 -39 2 -7 -3 -11 -10
-9 -8 3 -35 -32 -68 -86 -30 -50 -59 -94 -65 -98 -6 -4 -25 4 -43 18 -17 13
-36 24 -41 24 -4 0 -26 13 -48 30 -21 16 -44 30 -51 30 -6 0 -18 6 -25 13 -25
24 -69 48 -77 42 -5 -2 -11 2 -15 10 -3 8 -12 15 -21 15 -8 0 -15 4 -15 8 0
12 -68 34 -81 26 -7 -4 -9 -3 -6 3 10 17 -20 24 -33 8 -9 -11 -6 -16 12 -26
13 -6 27 -18 31 -25 4 -8 15 -14 22 -14 8 0 15 -4 15 -8 0 -5 18 -17 40 -27
22 -10 40 -23 40 -28 0 -6 3 -7 7 -4 3 4 13 1 22 -7 25 -23 125 -71 140 -67 7
1 11 -2 8 -7 -3 -4 14 -16 38 -26 24 -10 46 -25 49 -32 3 -8 -7 -40 -22 -72
-26 -53 -30 -57 -60 -54 -38 3 -40 -4 -10 -35 l22 -24 -24 -68 c-15 -44 -28
-67 -36 -64 -18 7 -26 -14 -11 -28 11 -11 11 -24 -4 -81 -22 -82 -25 -89 -44
-81 -8 3 -15 0 -15 -6 0 -7 7 -14 15 -18 11 -4 14 -14 11 -37 -3 -17 -8 -52
-12 -77 -5 -39 -9 -45 -28 -44 -51 4 -61 -18 -16 -34 l30 -10 -4 -71 c-3 -40
-10 -78 -16 -85 -8 -9 -8 -15 0 -20 5 -3 10 -39 10 -79 l0 -73 -268 1 c-257 1
-322 -4 -322 -24 0 -23 85 -30 338 -26 144 2 262 1 262 -3 1 -3 3 -34 5 -68
l5 -62 -45 -6 c-43 -7 -75 -29 -61 -42 3 -3 29 -8 58 -10 57 -3 65 -10 74 -65
4 -23 11 -35 17 -31 6 4 8 0 5 -9 -6 -16 1 -62 25 -146 l14 -53 -48 -21 c-27
-11 -49 -25 -49 -30 0 -8 18 -7 104 6 5 0 20 -26 33 -59 27 -68 26 -69 -53
-102 -43 -18 -59 -43 -28 -43 9 0 41 7 71 16 30 9 56 14 58 12 2 -1 15 -25 29
-53 l25 -50 -34 -30 c-19 -17 -35 -34 -35 -38 0 -10 44 -9 74 3 23 8 28 5 60
-48 24 -37 32 -60 26 -66 -17 -17 -11 -28 10 -21 12 4 20 2 20 -5 0 -6 5 -8
12 -4 6 4 8 3 5 -2 -3 -5 8 -25 24 -43 36 -42 36 -51 2 -76 -42 -31 -103 -92
-103 -104 0 -14 17 -14 25 -1 4 6 10 8 15 5 4 -3 13 2 20 10 7 8 16 13 20 10
5 -3 16 5 24 17 9 12 16 19 16 14 0 -5 12 -1 26 9 24 16 27 16 47 -2 12 -10
27 -25 34 -34 25 -33 101 -108 105 -103 3 2 11 -7 18 -21 7 -14 17 -25 22 -25
12 0 10 -17 -5 -32 -7 -7 -14 -16 -15 -20 -1 -5 -4 -7 -7 -5 -5 2 -40 -45 -39
-53 1 -3 -7 -11 -17 -18 -27 -19 -24 -35 3 -21 32 17 48 35 40 44 -4 5 -1 5 6
1 6 -4 19 0 28 8 8 9 12 16 7 17 -4 0 2 4 15 10 13 5 21 13 17 19 -10 17 31
-3 69 -34 20 -15 36 -33 36 -38 0 -12 -71 -111 -82 -116 -5 -2 -8 -10 -8 -18
0 -8 -4 -14 -10 -14 -5 0 -10 -6 -10 -14 0 -8 -6 -17 -12 -19 -7 -3 -1 -5 14
-4 15 1 26 4 26 7 -2 20 4 30 14 24 8 -5 9 -2 5 10 -4 9 -3 15 2 12 5 -3 17 2
28 12 10 9 14 15 8 12 -6 -3 -2 3 10 14 11 10 19 23 17 28 -1 5 2 7 7 4 5 -4
16 1 24 9 21 20 22 20 72 -16 l44 -31 -26 -41 c-14 -22 -32 -55 -39 -73 -12
-28 -12 -32 2 -30 9 1 21 10 26 19 5 10 13 15 19 12 5 -4 9 -3 9 2 0 11 56 73
65 73 13 0 120 -54 123 -62 2 -4 12 -8 22 -8 10 0 22 -5 25 -11 4 -5 12 -8 18
-6 5 1 21 -7 35 -20 l24 -22 -40 -93 c-42 -98 -59 -158 -45 -158 24 1 90 90
76 103 -3 4 -1 7 6 7 7 0 10 4 7 9 -4 5 -2 11 4 13 5 1 11 13 13 26 2 13 9 27
17 32 7 4 10 12 6 18 -3 6 3 13 13 17 26 8 121 -26 121 -43 0 -10 7 -12 25 -8
30 8 116 -14 122 -31 3 -7 0 -36 -7 -65 -6 -29 -14 -66 -16 -83 -3 -16 -7 -40
-9 -52 -3 -12 -1 -25 5 -28 11 -7 17 6 62 135 16 47 31 86 32 88 2 1 27 -3 56
-9 l52 -11 -6 -42 c-6 -39 -14 -107 -20 -171 -2 -16 -1 -36 2 -43 11 -30 32
15 58 129 l28 120 41 -5 c22 -3 45 -5 52 -5 8 -1 10 -29 8 -96 -2 -69 0 -97
10 -105 9 -8 15 -8 20 0 3 5 3 10 -2 10 -4 0 -2 4 5 9 8 4 19 45 25 92 l12 84
138 3 c75 1 137 -1 138 -5 13 -196 30 -283 53 -283 24 0 29 85 13 245 -2 18 3
20 48 18 28 -2 68 -3 90 -4 25 -1 55 6 80 19 63 35 63 35 100 -84 9 -27 25
-63 36 -80 l20 -29 -5 45 c-7 55 -13 90 -27 153 -6 26 -9 54 -6 62 6 13 86 60
91 53 7 -9 35 -76 41 -98 4 -14 13 -34 20 -45 6 -11 17 -37 24 -57 7 -21 17
-38 22 -38 5 0 9 -8 10 -17 0 -11 3 -13 6 -5 2 6 8 10 12 7 9 -5 -12 74 -52
195 -13 41 -22 79 -20 83 5 8 26 17 70 31 20 6 26 -1 57 -62 19 -38 47 -84 62
-102 24 -28 29 -30 34 -15 7 20 -8 70 -46 154 l-25 55 20 15 c12 9 42 27 68
41 27 14 67 38 90 53 44 29 83 30 83 1 0 -8 5 -14 10 -14 6 0 10 -6 10 -12 0
-7 10 -25 23 -40 12 -15 35 -43 50 -63 16 -19 33 -33 38 -29 5 3 9 2 8 -3 -3
-19 2 -34 10 -29 5 3 12 -1 15 -10 3 -8 10 -13 15 -10 9 6 -10 76 -21 76 -5 0
-8 7 -8 16 0 8 -5 12 -10 9 -6 -4 -10 -3 -9 2 3 20 -3 34 -25 56 -14 14 -23
27 -20 29 2 3 -7 17 -20 31 -33 35 -42 65 -22 73 9 3 13 11 9 18 -3 6 -3 8 2
4 4 -4 21 2 36 13 l29 20 35 -27 36 -27 -17 42 -16 41 37 35 c20 19 41 35 46
35 9 0 42 -26 93 -75 47 -45 96 -85 106 -85 11 0 2 29 -16 50 -7 8 -37 41 -67
73 -29 31 -52 57 -49 57 2 0 -1 6 -7 14 -9 11 -8 17 3 29 8 8 13 17 10 20 -3
3 4 8 15 12 12 3 21 11 21 16 0 17 25 9 53 -16 15 -14 27 -23 27 -19 0 3 9 -4
20 -17 10 -13 19 -20 20 -16 0 5 7 1 16 -7 8 -9 20 -14 25 -10 5 3 8 0 7 -8
-2 -7 3 -12 9 -11 7 2 12 -1 10 -7 -3 -12 75 -60 87 -53 5 3 -42 54 -103 113
l-112 107 18 30 c29 52 49 58 89 28 19 -14 34 -22 34 -18 0 4 4 3 8 -3 14 -22
88 -53 103 -43 9 5 10 9 2 9 -6 0 -20 13 -29 30 -13 21 -20 26 -26 17 -6 -9
-8 -8 -8 4 0 8 -18 28 -40 45 -43 31 -48 57 -17 85 9 9 17 18 17 21 0 2 24 41
53 86 52 77 55 80 78 69 130 -66 239 -100 239 -74 0 8 -6 17 -12 21 -7 3 -31
17 -53 31 -22 13 -60 34 -85 46 -99 46 -90 37 -71 78 30 65 41 81 58 81 12 0
13 3 4 14 -9 11 -7 27 10 72 12 33 22 60 23 61 1 1 22 -3 46 -8 25 -6 56 -12
70 -14 14 -2 42 -6 64 -10 73 -14 34 18 -66 53 l-95 34 15 55 16 54 40 -5
c108 -14 239 -19 233 -9 -7 12 -144 51 -204 59 -21 2 -41 8 -45 12 -7 7 4 98
13 107 3 2 36 5 74 7 53 3 70 7 70 18 0 10 -22 20 -65 31 -65 16 -65 17 -63
50 6 137 13 252 15 254 2 2 32 6 68 9 85 8 124 19 128 38 3 18 -8 20 -114 19
-93 -1 -89 -5 -93 94 -1 33 -6 76 -10 95 -4 19 -7 53 -7 74 1 40 2 40 65 64
66 26 68 44 3 33 -77 -14 -84 -11 -99 44 -7 28 -13 55 -13 60 0 6 29 23 63 38
37 16 64 34 64 42 0 19 -6 19 -73 -1 -31 -9 -61 -13 -68 -11 -21 8 -44 121
-26 132 19 12 10 34 -16 37 -21 2 -30 14 -50 62 -24 60 -24 76 2 76 8 0 14 5
14 10 0 6 3 9 8 8 11 -3 92 41 92 50 0 4 12 9 26 10 14 1 32 9 40 17 9 8 22
15 30 15 8 0 17 6 20 13 3 8 10 14 17 14 24 0 147 75 140 85 -3 7 -1 8 5 4 7
-4 12 -2 12 4 0 6 4 9 9 5 5 -3 13 0 16 5 4 6 18 15 31 20 16 6 22 15 18 25
-4 10 -1 14 7 12 8 -2 11 -2 6 0 -4 3 -5 9 -1 14 8 13 -3 11 -39 -8 -18 -9
-35 -16 -39 -15 -5 1 -8 -3 -8 -10 0 -6 -3 -8 -6 -5 -4 4 -19 -2 -34 -13 -15
-11 -30 -17 -33 -13 -4 3 -9 -2 -13 -11 -3 -9 -10 -14 -14 -11 -5 3 -15 -2
-23 -10 -9 -8 -20 -15 -26 -15 -6 0 -11 -5 -11 -11 0 -5 -4 -8 -8 -5 -5 3 -20
-6 -35 -20 -15 -14 -27 -22 -27 -18 0 4 -8 0 -18 -9 -10 -10 -22 -14 -25 -10
-4 3 -7 1 -7 -5 0 -7 -6 -12 -14 -12 -8 0 -17 -7 -20 -16 -3 -8 -10 -13 -15
-9 -6 3 -13 0 -18 -7 -9 -15 -85 -58 -101 -58 -6 0 -16 16 -22 35 -6 19 -16
35 -22 35 -6 0 -8 3 -5 7 4 3 2 12 -4 20 -9 10 -8 18 5 31 9 10 13 22 9 26 -4
4 1 4 11 0 14 -5 17 -4 12 4 -4 8 -1 12 10 12 10 0 15 3 12 6 -4 3 3 15 14 26
11 11 18 22 15 24 -7 8 -59 -15 -53 -24 2 -4 -7 -9 -21 -10 -14 -1 -32 -7 -40
-14 -12 -10 -17 -9 -24 4 -5 10 -16 24 -24 32 -8 8 -15 18 -15 22 0 5 -12 19
-27 32 -16 13 -23 21 -17 18 6 -3 11 1 11 8 0 8 -6 12 -14 9 -7 -3 -13 1 -13
9 0 7 -12 27 -27 44 -49 54 -54 69 -38 100 16 31 12 45 -7 26 -32 -32 -35 -9
-8 76 15 48 32 118 39 156 7 38 19 75 27 83 8 8 12 19 8 24 -3 5 0 8 8 7 7 -2
12 4 10 12 -2 8 0 12 4 8 10 -11 35 12 27 26 -3 6 -2 8 2 3 9 -8 55 30 55 46
0 5 6 15 14 21 8 6 17 21 21 34 5 18 2 22 -14 22 -12 0 -21 -5 -21 -12 0 -6
-3 -8 -6 -5 -6 6 -29 -16 -81 -77 -21 -23 -62 -38 -49 -17 3 5 -29 9 -71 10
-42 1 -79 4 -81 6 -3 2 1 11 7 19 7 8 9 21 5 27 -4 7 -3 10 2 7 5 -3 17 3 27
14 9 10 15 18 12 18 -3 0 4 9 15 20 12 12 18 26 14 32 -4 7 -3 8 5 4 6 -4 14
0 18 11 4 10 15 27 25 38 10 10 16 25 13 33 -2 7 0 10 5 7 6 -3 10 -2 10 4 0
5 3 17 6 25 5 12 2 15 -12 9 -13 -5 -15 -3 -9 8 4 8 -7 -2 -24 -21 -17 -19
-39 -44 -49 -55 -26 -28 -57 -79 -54 -87 1 -5 -2 -8 -7 -8 -5 0 -24 -25 -41
-55 -24 -42 -37 -55 -56 -56 -13 0 -49 0 -79 0 -30 0 -59 0 -64 0 -5 1 -11 10
-14 21 -3 14 0 20 11 20 8 0 12 3 9 7 -4 3 1 16 12 27 10 12 28 38 40 59 12
20 31 54 43 75 41 70 67 127 72 156 5 27 4 27 -13 12 -10 -9 -21 -13 -26 -9
-4 5 -5 0 -2 -10 4 -11 3 -16 -4 -12 -6 4 -13 -2 -16 -14 -3 -12 -9 -21 -13
-21 -4 0 -17 -18 -28 -39 -34 -65 -47 -86 -55 -92 -5 -3 -9 -10 -9 -15 -1 -15
-11 -39 -20 -44 -16 -12 -55 -100 -44 -101 6 -1 -5 -6 -26 -13 -20 -6 -64 -9
-97 -8 -51 3 -61 7 -61 22 0 21 -26 34 -36 18 -5 -7 -2 -8 6 -3 8 5 11 4 7 -2
-8 -14 -40 -10 -68 8 -13 8 -39 21 -57 28 -37 15 -37 18 5 110 13 30 25 63 26
73 1 10 4 18 8 18 7 0 31 70 29 84 -1 5 3 12 8 15 22 13 78 211 64 225 -9 10
-63 -57 -58 -71 3 -7 1 -13 -4 -13 -11 0 -39 -74 -96 -258 -25 -81 -47 -148
-48 -149 -2 -2 -22 4 -46 12 -23 8 -46 12 -51 9 -5 -3 -9 -1 -9 5 0 6 -11 13
-25 17 -14 3 -25 10 -25 16 0 5 -4 7 -8 4 -4 -2 -44 5 -87 18 -74 20 -80 24
-86 51 l-6 30 -13 -27 c-14 -29 -17 -29 -100 -13 -61 13 -77 15 -158 21 -48 3
-89 7 -92 9 -3 2 -4 100 -3 218 1 221 -3 270 -24 275 -7 1 -13 1 -14 0z"/>
</g>
</svg>
